#!OML:ASF F:\VICON\USERDATA\INSTALL\Justin_Nancy\Justin_Nancy.ASF
:FULLY-SPECIFIED
:DEGREES
48
root 13.235 16.8299 -16.777 -0.299256 4.51237 -0.920043
lowerback 6.09567 1.01063 1.67421
upperback -0.732274 1.57915 2.49954
thorax -4.20456 0.774917 1.49399
lowerneck -15.6206 -4.4534 -10.335
upperneck 23.3212 -5.14847 6.4206
head 10.5015 -2.53448 3.32154
rclavicle -1.77043e-014 3.97569e-015
rhumerus -30.0936 -14.4944 -73.9083
rradius 49.095
rwrist -2.4226
rhand -14.6262 10.7138
rfingers 7.12502
rthumb 11.5253 -18.9493
lclavicle -1.77043e-014 3.97569e-015
lhumerus -41.1398 26.9096 71.1683
lradius 13.0147
lwrist -27.8472
lhand -12.0976 24.5965
lfingers 7.12502
lthumb 13.9629 54.1076
rfemur 12.2636 3.25225 30.1697
rtibia 36.5715
rfoot -5.48183 -4.25042
rtoes -16.84
lfemur -33.262 -0.51428 -16.2497
ltibia 27.9693
lfoot -2.13077 -2.7053
ltoes -14.1024
49
root 13.242 16.8376 -16.5286 -0.341873 4.9088 0.0169978
lowerback 6.43777 0.942552 0.621729
upperback -1.01389 1.41346 2.26744
thorax -4.70737 0.715782 1.85456
lowerneck -15.2345 -4.44863 -10.4617
upperneck 23.7098 -5.18994 6.51253
head 10.5795 -2.5647 3.38142
rclavicle -1.29955e-014 1.59028e-014
rhumerus -30.9139 -14.9123 -73.4758
rradius 48.5342
rwrist -2.29514
rhand -14.6947 10.7252
rfingers 7.12502
rthumb 11.4592 -18.9416
lclavicle -1.29955e-014 1.59028e-014
lhumerus -41.5957 27.1649 70.5411
lradius 12.7978
lwrist -28.8313
lhand -11.3637 25.9981
lfingers 7.12502
lthumb 14.6701 55.4591
rfemur 10.9007 2.887 29.1125
rtibia 39.8698
rfoot -1.44348 -3.20736
rtoes -15.566
lfemur -33.096 -0.420062 -17.2907
ltibia 29.3072
lfoot -1.53004 -4.57286
ltoes -14.3165
50
root 13.2508 16.8151 -16.2786 -0.54231 5.07325 0.964738
lowerback 6.70837 0.94378 -0.310537
upperback -1.07346 1.32658 1.92523
thorax -4.9329 0.694193 2.02881
lowerneck -15.0376 -4.47313 -10.5557
upperneck 23.8618 -5.30734 6.80989
head 10.6192 -2.59776 3.4942
rclavicle 1.1208e-014 2.46493e-014
rhumerus -31.6634 -15.4515 -73.2054
rradius 47.9662
rwrist -2.10961
rhand -14.7513 10.6689
rfingers 7.12502
rthumb 11.4046 -19.0009
lclavicle 1.1208e-014 2.46493e-014
lhumerus -41.8003 27.6959 69.7044
lradius 12.6142
lwrist -30.0181
lhand -11.2466 26.2466
lfingers 7.12502
lthumb 14.7829 55.6994
rfemur 9.62034 2.58724 27.9808
rtibia 43.4335
rfoot 2.02818 -2.09044
rtoes -14.5368
lfemur -32.5827 0.0208497 -18.4352
ltibia 30.3564
lfoot -1.29899 -5.40792
ltoes -15.2411
51
root 13.2627 16.7928 -16.0232 -0.798702 5.2029 1.79632
lowerback 6.81961 0.979195 -0.94903
upperback -0.949881 1.29886 1.52593
thorax -4.87049 0.691024 1.97507
lowerneck -15.1684 -4.52689 -10.5775
upperneck 23.809 -5.46182 7.18417
head 10.6513 -2.62443 3.6105
rclavicle 2.84534e-014 7.95139e-016
rhumerus -32.2932 -16.1461 -73.0955
rradius 47.4092
rwrist -1.89872
rhand -14.9535 10.4969
rfingers 7.12502
rthumb 11.2096 -19.1837
lclavicle 2.84534e-014 7.95139e-016
lhumerus -41.3942 27.2527 69.7963
lradius 12.7221
lwrist -30.0192
lhand -11.7498 26.8587
lfingers 7.12502
lthumb 14.2981 56.3464
rfemur 8.20529 2.22406 26.8765
rtibia 47.048
rfoot 4.96323 -0.978846
rtoes -12.7322
lfemur -31.9346 0.701528 -19.5538
ltibia 31.1569
lfoot -1.37665 -5.6149
ltoes -14.6657
52
root 13.2751 16.7821 -15.775 -1.08728 5.27209 2.23552
lowerback 6.90913 0.96208 -1.23589
upperback -0.742336 1.23991 1.32233
thorax -4.70362 0.663775 1.93138
lowerneck -14.9282 -4.62775 -10.3892
upperneck 23.3157 -5.59958 6.96571
head 10.4264 -2.69699 3.47214
rclavicle 1.65061e-014 -7.95139e-015
rhumerus -32.5812 -16.7103 -73.0096
rradius 46.6012
rwrist -1.43048
rhand -15.1693 10.3205
rfingers 7.12502
rthumb 11.0015 -19.3712
lclavicle 1.65061e-014 -7.95139e-015
lhumerus -41.1475 27.4039 69.5155
lradius 12.705
lwrist -30.2672
lhand -11.7892 25.9105
lfingers 7.12502
lthumb 14.2601 55.401
rfemur 6.60667 1.85398 26.1698
rtibia 50.531
rfoot 7.99481 -0.269463
rtoes -1.84764
lfemur -31.3888 1.54445 -20.2685
ltibia 31.823
lfoot -1.19558 -6.5939
ltoes -11.6927
53
root 13.2855 16.7963 -15.5343 -1.40961 5.15688 2.50911
lowerback 7.03432 0.986473 -1.3516
upperback -0.437219 1.2548 1.20646
thorax -4.45691 0.66813 1.87473
lowerneck -14.8387 -4.77964 -10.2373
upperneck 23.0022 -5.74292 6.55723
head 10.2936 -2.79532 3.27362
rclavicle -6.45429e-015 -6.36111e-015
rhumerus -32.712 -17.1907 -72.959
rradius 45.8419
rwrist -0.95708
rhand -15.5413 10.1491
rfingers 7.12502
rthumb 10.6426 -19.5614
lclavicle -6.45429e-015 -6.36111e-015
lhumerus -40.6438 27.2845 69.748
lradius 12.9755
lwrist -29.6872
lhand -11.6694 25.5801
lfingers 7.12502
lthumb 14.3756 55.0624
rfemur 5.09978 1.61874 25.6657
rtibia 53.7557
rfoot 10.4086 0.259712
rtoes 4.18908
lfemur -30.5628 2.39127 -20.7507
ltibia 32.4225
lfoot -1.33273 -8.05303
ltoes -8.77742
54
root 13.2876 16.8369 -15.2974 -1.78231 5.2271 2.97489
lowerback 7.26364 0.884169 -1.73903
upperback -0.0191111 1.07858 1.12475
thorax -4.14924 0.582049 2.02696
lowerneck -15.758 -4.7176 -10.4938
upperneck 23.1678 -5.52614 6.67344
head 10.5216 -2.68912 3.38082
rclavicle 1.6847e-014 4.77083e-015
rhumerus -32.5812 -17.3352 -73.0401
rradius 45.1264
rwrist -0.637422
rhand -15.6756 9.84392
rfingers 7.12502
rthumb 10.5131 -19.8732
lclavicle 1.6847e-014 4.77083e-015
lhumerus -40.1198 28.1761 69.5836
lradius 13.0337
lwrist -29.6661
lhand -11.9258 24.1053
lfingers 7.12502
lthumb 14.1285 53.605
rfemur 3.77242 1.20426 25.003
rtibia 56.7307
rfoot 11.358 0.365296
rtoes 5.57263
lfemur -29.4472 3.0049 -21.423
ltibia 33.0151
lfoot -2.03783 -8.85935
ltoes -8.17715
55
root 13.2907 16.8824 -15.0587 -1.96956 5.34404 3.51781
lowerback 7.34488 0.740482 -2.21923
upperback 0.290329 0.843065 1.05884
thorax -3.86806 0.46763 2.25523
lowerneck -17.104 -4.53634 -10.8381
upperneck 23.6463 -5.1289 6.9921
head 10.9374 -2.48053 3.61028
rclavicle 2.90723e-015 3.18055e-015
rhumerus -32.47 -17.3062 -73.0583
rradius 44.1746
rwrist -0.157009
rhand -15.4787 10.1272
rfingers 7.12502
rthumb 10.703 -19.5801
lclavicle 2.90723e-015 3.18055e-015
lhumerus -39.4933 28.4358 70.0233
lradius 13.316
lwrist -29.0437
lhand -11.968 24.3936
lfingers 7.12502
lthumb 14.0878 53.8961
rfemur 2.1963 0.761442 24.2694
rtibia 59.6371
rfoot 11.0513 -0.105969
rtoes 5.13799
lfemur -28.4701 3.23744 -22.0932
ltibia 33.5192
lfoot -2.47994 -8.65465
ltoes -7.7977
56
root 13.2925 16.9069 -14.8319 -2.05115 5.38565 4.05287
lowerback 7.52322 0.752451 -2.62552
upperback 0.270443 0.810162 0.810696
thorax -3.98915 0.458251 2.22857
lowerneck -17.1103 -4.42632 -10.6793
upperneck 23.7542 -5.04936 7.08829
head 10.967 -2.41937 3.63387
rclavicle -3.19298e-015 7.15625e-015
rhumerus -33.1616 -17.5342 -72.978
rradius 43.4083
rwrist 0.251125
rhand -15.0502 9.98354
rfingers 7.12502
rthumb 11.1163 -19.702
lclavicle -3.19298e-015 7.15625e-015
lhumerus -39.022 26.7998 71.0728
lradius 14.1333
lwrist -27.0448
lhand -11.5713 25.7982
lfingers 7.12502
lthumb 14.4701 55.2737
rfemur 0.390386 0.353369 23.5686
rtibia 62.3929
rfoot 10.163 -0.928972
rtoes 4.78798
lfemur -27.6834 3.16643 -22.6982
ltibia 33.9501
lfoot -2.79898 -8.17196
ltoes -0.400699
57
root 13.2967 16.8753 -14.6202 -2.25285 5.39085 4.51291
lowerback 7.81979 0.738904 -3.01373
upperback 0.231841 0.742685 0.658842
thorax -4.19506 0.434233 2.29462
lowerneck -16.5506 -4.33753 -10.5978
upperneck 23.6835 -4.96662 6.9463
head 10.817 -2.40089 3.58327
rclavicle -6.28657e-015 -7.95139e-016
rhumerus -33.8953 -17.5945 -72.878
rradius 42.6058
rwrist 0.735792
rhand -14.6672 9.81121
rfingers 7.12502
rthumb 11.4857 -19.8541
lclavicle -6.28657e-015 -7.95139e-016
lhumerus -38.8495 25.7786 71.6501
lradius 14.6316
lwrist -25.0431
lhand -12.1136 24.9076
lfingers 7.12502
lthumb 13.9476 54.4198
rfemur -1.4065 -0.0890806 22.9722
rtibia 65.1668
rfoot 8.70252 -2.12528
rtoes 4.24798
lfemur -27.0526 2.941 -23.255
ltibia 34.0654
lfoot -2.88063 -7.7817
ltoes 1.3455
58
root 13.3007 16.9382 -14.3915 -2.42734 5.38326 4.92693
lowerback 8.03061 0.635004 -3.29721
upperback 0.242887 0.568612 0.588562
thorax -4.29331 0.354376 2.40023
lowerneck -16.3684 -4.20642 -10.8441
upperneck 23.8213 -4.73273 6.93278
head 10.8157 -2.32312 3.65905
rclavicle -8.10048e-015 5.56597e-015
rhumerus -34.3715 -17.3168 -72.7996
rradius 41.6934
rwrist 1.37138
rhand -14.1318 9.85009
rfingers 7.12502
rthumb 12.002 -19.7858
lclavicle -8.10048e-015 5.56597e-015
lhumerus -38.7941 25.9193 71.6879
lradius 14.7884
lwrist -24.2199
lhand -12.546 24.5273
lfingers 7.12502
lthumb 13.5308 54.0677
rfemur -2.96306 -0.667891 22.3116
rtibia 67.2503
rfoot 7.39277 -3.49744
rtoes 3.73014
lfemur -25.6651 2.40983 -23.6195
ltibia 34.1774
lfoot -3.94931 -6.87237
ltoes -1.5411
59
root 13.3005 16.9652 -14.1727 -2.45067 5.53204 5.21103
lowerback 8.06155 0.494816 -3.4933
upperback 0.252756 0.359933 0.521374
thorax -4.28741 0.254056 2.4652
lowerneck -16.0393 -4.10125 -10.8242
upperneck 23.6407 -4.562 6.72145
head 10.6624 -2.27198 3.60144
rclavicle -3.80176e-015 -1.90833e-014
rhumerus -34.6577 -17.1679 -72.8064
rradius 40.6863
rwrist 2.35889
rhand -13.497 8.9041
rfingers 7.12502
rthumb 12.614 -20.695
lclavicle -3.80176e-015 -1.90833e-014
lhumerus -38.3543 26.17 71.6604
lradius 14.6077
lwrist -24.2182
lhand -12.426 25.6883
lfingers 7.12502
lthumb 13.6464 55.221
rfemur -4.81619 -1.38433 21.8645
rtibia 69.1594
rfoot 6.13321 -4.77273
rtoes 1.14956
lfemur -24.8403 1.87723 -23.9497
ltibia 34.128
lfoot -4.61135 -6.00015
ltoes -7.89445
60
root 13.2899 16.9958 -13.9754 -2.37211 6.04804 5.49531
lowerback 8.22573 0.28592 -3.8389
upperback 0.173816 0.0420652 0.530387
thorax -4.44073 0.10801 2.70723
lowerneck -15.2682 -3.93232 -10.5589
upperneck 22.7221 -4.34081 6.31783
head 10.1421 -2.19528 3.42934
rclavicle -1.58903e-014 1.98785e-014
rhumerus -35.0599 -17.1747 -72.6512
rradius 39.7851
rwrist 3.549
rhand -12.741 7.80261
rfingers 7.12502
rthumb 13.3429 -21.7502
lclavicle -1.58903e-014 1.98785e-014
lhumerus -37.7682 26.4374 71.7024
lradius 14.1915
lwrist -24.3308
lhand -12.6931 25.2553
lfingers 7.12502
lthumb 13.389 54.8051
rfemur -6.80311 -2.37945 21.4933
rtibia 70.672
rfoot 5.02595 -5.902
rtoes -0.144301
lfemur -24.0532 0.705643 -24.1016
ltibia 34.2535
lfoot -4.99192 -5.17317
ltoes -6.37604
61
root 13.2842 17.0309 -13.7722 -2.33657 6.40097 5.69656
lowerback 8.31514 0.0893862 -4.03098
upperback 0.17372 -0.240134 0.563824
thorax -4.46907 -0.0266265 2.8847
lowerneck -14.6025 -4.28913 -10.8127
upperneck 23.0496 -4.76259 5.91495
head 10.1751 -2.47232 3.27913
rclavicle -2.82026e-015 1.51076e-014
rhumerus -35.4327 -17.0482 -72.5389
rradius 38.8844
rwrist 4.26173
rhand -12.0859 8.26554
rfingers 7.12502
rthumb 13.9742 -21.2448
lclavicle -2.82026e-015 1.51076e-014
lhumerus -37.0384 25.8341 72.4617
lradius 14.279
lwrist -23.3007
lhand -13.0354 25.0019
lfingers 7.12502
lthumb 13.0591 54.573
rfemur -8.6634 -3.19141 21.2071
rtibia 71.8983
rfoot 3.9932 -6.89668
rtoes 2.36724
lfemur -23.2644 -0.155217 -24.2395
ltibia 34.396
lfoot -5.60503 -4.4749
ltoes -4.73119
62
root 13.283 17.0635 -13.5565 -2.32261 6.29582 5.72097
lowerback 8.11295 0.0682481 -3.96551
upperback 0.322855 -0.248433 0.611387
thorax -4.19908 -0.039886 2.89611
lowerneck -15.3598 -3.78765 -10.5898
upperneck 22.847 -4.05202 6.04374
head 10.1728 -2.09608 3.37713
rclavicle 1.61016e-014 1.51076e-014
rhumerus -35.6922 -17.0619 -72.4473
rradius 37.9125
rwrist 4.85181
rhand -11.8955 9.25529
rfingers 7.12502
rthumb 14.1577 -20.2423
lclavicle 1.61016e-014 1.51076e-014
lhumerus -35.9556 24.86 73.5865
lradius 14.4656
lwrist -22.2926
lhand -12.8786 26.6638
lfingers 7.12502
lthumb 13.2102 56.2253
rfemur -10.4177 -3.54947 21.1411
rtibia 72.7985
rfoot 2.90385 -7.74321
rtoes 4.99519
lfemur -22.5279 -0.484087 -24.1711
ltibia 34.6809
lfoot -6.39367 -3.73724
ltoes -4.38555
